# xmcd
#
# Track frame offsets:
#	150
#	18428
#	36705
#	53428
#
# Disc length: 745 seconds
#
# Revision: 1
# Processed by: cddbd v1.5.1PL0 Copyright (c) Steve Scherf et al.
# Submitted via: CDex 1.50Beta5
#
DISCID=2c02e704
DTITLE=ピチカート・ファイヴ - ベイビィ・ポータブル・ロック
DYEAR=1996
DGENRE=
TTITLE0=ベイビィ・ポータブル・ロック
TTITLE1=ベイビィ・ポータブル・ロック
TTITLE2=悲しい歌
TTITLE3=ベイビィ・ポータブル・ロック
EXTD=
EXTT0=
EXTT1=
EXTT2=
EXTT3=
PLAYORDER=
